<svg width="18" height="18" viewBox="0 0 18 18" fill="none" xmlns="http://www.w3.org/2000/svg">
<g clip-path="url(#clip0)">
<path d="M2.32705 13.6394C2.58791 13.9002 2.58791 14.3232 2.32705 14.5839L1.74059 15.1705C1.61528 15.2958 1.44544 15.3661 1.26821 15.3661C1.26706 15.3661 1.2659 15.366 1.26474 15.366C1.26358 15.366 1.26243 15.3661 1.26136 15.3661C1.04922 15.3661 0.860498 15.2669 0.73813 15.1127L0.195576 14.57C-0.0652806 14.3092 -0.0651915 13.8862 0.195576 13.6255C0.30699 13.5141 0.448061 13.4507 0.593318 13.4344V2.01009C0.447972 1.99388 0.30699 1.93047 0.195487 1.81896C-0.0653696 1.55811 -0.0652806 1.13516 0.195487 0.874394L0.781947 0.287935C0.913132 0.156749 1.08537 0.0917355 1.25735 0.0925371C1.2586 0.0925371 1.25984 0.092359 1.26118 0.092359C1.47323 0.092359 1.66186 0.191483 1.78423 0.345645L2.32687 0.888288C2.58773 1.14914 2.58773 1.57209 2.32687 1.83286C2.21546 1.94427 2.07439 2.00777 1.92904 2.02398V13.4484C2.07456 13.4645 2.21563 13.5279 2.32705 13.6394ZM18 16.6394C18 16.4623 17.9296 16.2924 17.8043 16.1671L17.2179 15.5806C16.9569 15.3198 16.5342 15.3197 16.2732 15.5807C16.1618 15.6921 16.0984 15.8331 16.0822 15.9784H4.65775C4.64154 15.8331 4.57813 15.6921 4.46663 15.5806C4.20577 15.3198 3.78282 15.3198 3.52206 15.5806L2.97923 16.1234C2.82525 16.2458 2.72613 16.4343 2.72613 16.6464C2.72613 16.6475 2.7263 16.6486 2.7263 16.6498C2.7263 16.6509 2.72613 16.6521 2.72613 16.6532C2.72613 16.8304 2.79648 17.0003 2.92179 17.1256L3.50825 17.7121C3.63872 17.8425 3.80963 17.9076 3.98054 17.9076C4.15144 17.9076 4.32244 17.8425 4.45291 17.712C4.56432 17.6006 4.62765 17.4596 4.64394 17.3143H16.0684C16.0846 17.4596 16.148 17.6007 16.2594 17.7121C16.3898 17.8425 16.5608 17.9076 16.7317 17.9076C16.9026 17.9076 17.0736 17.8425 17.204 17.7121L17.7464 17.1696C17.9007 17.0472 17.9999 16.8586 17.9999 16.6464C17.9999 16.6452 17.9997 16.6441 17.9997 16.6429C17.9998 16.6417 18 16.6406 18 16.6394ZM17.3321 5.72522H12.6326V0.76022C12.6326 0.391244 12.3336 0.0922699 11.9647 0.0922699H3.99443C3.62554 0.0922699 3.32648 0.391244 3.32648 0.76022V13.9172C3.32648 14.2862 3.62554 14.5852 3.99443 14.5852H17.3321C17.7009 14.5852 18 14.2862 18 13.9172V6.39317C18 6.02429 17.7009 5.72522 17.3321 5.72522Z" fill="#D5DADC"/>
</g>
<defs>
<clipPath id="clip0">
<rect width="18" height="18" fill="white"/>
</clipPath>
</defs>
</svg>
